<?xml version="1.0" encoding="UTF-8" standalone="no"?>
<svg
   xmlns:dc="http://purl.org/dc/elements/1.1/"
   xmlns:cc="http://creativecommons.org/ns#"
   xmlns:rdf="http://www.w3.org/1999/02/22-rdf-syntax-ns#"
   xmlns:svg="http://www.w3.org/2000/svg"
   xmlns="http://www.w3.org/2000/svg"
   xmlns:sodipodi="http://sodipodi.sourceforge.net/DTD/sodipodi-0.dtd"
   xmlns:inkscape="http://www.inkscape.org/namespaces/inkscape"
   width="2500"
   height="2500"
   version="1.1"
   viewBox="0 0 192.76 192.76"
   id="svg28"
   sodipodi:docname="decathlon-loader.svg"
   inkscape:version="1.0.2 (e86c870879, 2021-01-15)">
  <defs
     id="defs32">
    <rect
       x="67.772592"
       y="94.588212"
       width="51.675397"
       height="37.529017"
       id="rect876" />
    <rect
       x="72.938789"
       y="95.028248"
       width="41.563951"
       height="16.289446"
       id="rect850" />
  </defs>
  <sodipodi:namedview
     pagecolor="#ffffff"
     bordercolor="#666666"
     borderopacity="1"
     objecttolerance="10"
     gridtolerance="10"
     guidetolerance="10"
     inkscape:pageopacity="0"
     inkscape:pageshadow="2"
     inkscape:window-width="1920"
     inkscape:window-height="951"
     id="namedview30"
     showgrid="false"
     inkscape:zoom="0.20223254"
     inkscape:cx="401.59464"
     inkscape:cy="1507.2408"
     inkscape:window-x="0"
     inkscape:window-y="50"
     inkscape:window-maximized="1"
     inkscape:current-layer="g924"
     inkscape:document-rotation="0" />
  <metadata
     id="metadata2">
    <rdf:RDF>
      <cc:Work
         rdf:about="">
        <dc:format>image/svg+xml</dc:format>
        <dc:type
           rdf:resource="http://purl.org/dc/dcmitype/StillImage" />
        <dc:title />
      </cc:Work>
    </rdf:RDF>
  </metadata>
  <g
     transform="matrix(2.6749391,0,0,2.6749391,-137.04282,-141.79824)"
     id="g26">
    <g
       id="g924"
       transform="translate(-0.22540335,-1.1007253)">
      <circle
         cx="117.82002"
         cy="99.324371"
         r="73.996841"
         fill="none"
         stroke="#feea28"
         stroke-width="1.48536"
         id="circle4"
         transform="matrix(0.37384029,0,0,0.37384029,51.232127,53.009895)" />
      <g
         transform="matrix(0.33023,0,0,0.33023,50.822,51.890285)"
         clip-rule="evenodd"
         fill-rule="evenodd"
         id="g12">
        <path
           d="m 2.834,72.647 h 187.09 v 47.462 H 2.834 Z"
           fill="#00acec"
           id="path6" />
        <path
           d="m 77.582,83.824 -9.144,15.965 c -0.189,0.34 -1.996,3.088 -5.661,3.338 -3.65,0.17 -6.737,-3.271 -6.677,-6.967 0.119,-3.678 2.867,-6.617 6.532,-6.676 3.12,0.06 5.406,2.458 5.37,2.467 0.665,0.578 1.098,0.995 1.596,1.742 l 3.338,-5.806 c -0.597,-0.627 -0.85,-0.898 -1.596,-1.451 -1.896,-1.699 -4.671,-3.055 -8.563,-3.193 -3.757,-0.077 -7.532,1.487 -10.45,5.225 -1.795,2.393 -2.519,4.531 -2.612,7.692 0.042,3.691 1.381,6.689 3.338,8.854 3.352,3.504 7.409,4.346 9.58,4.355 3.117,-0.137 5.386,-0.889 7.547,-2.324 0.677,-0.469 1.416,-1.098 2.177,-1.887 h 5.806 v 3.629 h 5.951 V 83.824 Z m 0.581,16.11 H 74.97 l 3.193,-5.66 z m 11.812,9 V 89.731 h -4.703 v -5.802 h 15.712 v 5.802 h -4.81 v 19.203 z m 24.64,-9.567 h -6.342 v 9.567 h -6.199 V 83.929 h 6.199 v 9.495 h 6.342 v -9.495 h 6.235 v 25.005 h -6.235 z M 172.301,83.929 V 97.82 l -9.299,-13.891 h -5.594 v 8.448 c -0.633,-1.922 -1.734,-3.698 -3.291,-5.212 -2.459,-2.392 -5.666,-3.693 -9.051,-3.693 -3.598,0 -6.732,1.231 -9.227,3.658 -2.494,2.426 -3.848,5.591 -3.848,9.039 0,2.744 0.672,5.158 1.998,7.244 h -4.742 V 83.929 h -6.164 v 25.004 h 13.396 v -2.641 c 2.35,2.045 5.24,3.098 8.551,3.098 3.527,0 6.877,-1.373 9.336,-3.904 a 12.547,12.547 0 0 0 3.041,-5.082 v 8.529 h 6.199 V 95.007 l 9.441,13.927 h 5.451 V 83.929 Z m -27.27,19.272 c -3.492,0 -6.662,-3.025 -6.662,-6.963 0,-3.658 2.957,-6.577 6.734,-6.577 3.562,0 6.52,2.919 6.52,6.577 0,4.078 -2.957,6.963 -6.592,6.963 z"
           fill="#ffffff"
           id="path8" />
        <path
           d="M 49.715,89.338 V 83.823 H 35.927 V 94.112 C 35.51,91.134 34.319,88.701 32.399,86.917 29.762,84.455 26.948,83.928 22.922,83.928 h -8.658 v 25.004 h 9.513 c 3.562,0 5.95,-0.494 8.658,-3.096 1.913,-1.859 3.08,-4.209 3.492,-6.982 v 9.932 h 13.789 v -5.369 H 42.023 V 98.772 H 48.7 v -5.371 h -6.677 v -4.064 h 7.692 z M 22.958,103.447 H 20.464 V 89.309 h 2.458 c 4.56,0 7.019,2.532 7.019,7.034 -10e-4,4.923 -2.245,7.104 -6.983,7.104 z"
           fill="#ffffff"
           id="path10" />
      </g>
      <text
         xml:space="preserve"
         id="text874"
         style="font-style:normal;font-weight:normal;font-size:5.76492px;line-height:1.25;font-family:sans-serif;letter-spacing:1.48187px;white-space:pre;shape-inside:url(#rect876);fill:#ffffff;fill-opacity:1;stroke:none;"
         transform="translate(11.879611,-2.6980559)"><tspan
           x="67.773438"
           y="99.833248"><tspan
             style="letter-spacing:0px;fill:#ffffff;fill-opacity:1">EXTENDED</tspan><tspan
             dx="-1.4818701"
             style="shape-inside:url(#rect876)">
</tspan></tspan><tspan
           x="67.773438"
           y="107.03939"><tspan
             style="letter-spacing:1.00886px;fill:#ffffff;fill-opacity:1">REALITY</tspan></tspan></text>
    </g>
  </g>
</svg>
